M48
INCH
T1C0.0118
T2C0.0157
T3C0.1142
%
G90
G05
T1
X3.7992Y-4.5079
X3.7992Y-4.5472
X3.8386Y-4.5079
X3.8386Y-4.5472
X3.9567Y-4.5079
X3.9567Y-4.5472
X3.9961Y-4.5079
X3.9961Y-4.5472
T2
X3.3858Y-4.0354
X3.3858Y-4.0945
X3.3858Y-4.1535
X3.4449Y-4.0354
X3.4449Y-4.0945
X3.4449Y-4.1535
X3.5039Y-4.0354
X3.5039Y-4.0945
X3.5039Y-4.1535
X3.6614Y-4.0354
X3.6614Y-4.0945
X3.6614Y-4.1535
X3.7205Y-4.0354
X3.7205Y-4.0945
X3.7205Y-4.1535
X3.7795Y-4.0354
X3.7795Y-4.0945
X3.7795Y-4.1535
X4.0945Y-4.0354
X4.0945Y-4.0945
X4.0945Y-4.1535
X4.1535Y-4.0354
X4.1535Y-4.0945
X4.1535Y-4.1535
X4.2126Y-4.0354
X4.2126Y-4.0945
X4.2126Y-4.1535
X4.4094Y-4.0354
X4.4094Y-4.0945
X4.4094Y-4.1535
X4.4685Y-4.0354
X4.4685Y-4.0945
X4.4685Y-4.1535
X4.5276Y-4.0354
X4.5276Y-4.0945
X4.5276Y-4.1535
T3
X3.3366Y-4.4094
X3.3366Y-5.6102
X4.5374Y-4.4094
X4.5374Y-5.6102
T0
M30
