%TF.GenerationSoftware,KiCad,Pcbnew,7.0.6*%
%TF.CreationDate,2023-08-26T05:38:59+03:00*%
%TF.ProjectId,Matek H743-WING PCB,4d617465-6b20-4483-9734-332d57494e47,rev?*%
%TF.SameCoordinates,Original*%
%TF.FileFunction,Copper,L1,Top*%
%TF.FilePolarity,Positive*%
%FSLAX46Y46*%
G04 Gerber Fmt 4.6, Leading zero omitted, Abs format (unit mm)*
G04 Created by KiCad (PCBNEW 7.0.6) date 2023-08-26 05:38:59*
%MOMM*%
%LPD*%
G01*
G04 APERTURE LIST*
G04 Aperture macros list*
%AMRoundRect*
0 Rectangle with rounded corners*
0 $1 Rounding radius*
0 $2 $3 $4 $5 $6 $7 $8 $9 X,Y pos of 4 corners*
0 Add a 4 corners polygon primitive as box body*
4,1,4,$2,$3,$4,$5,$6,$7,$8,$9,$2,$3,0*
0 Add four circle primitives for the rounded corners*
1,1,$1+$1,$2,$3*
1,1,$1+$1,$4,$5*
1,1,$1+$1,$6,$7*
1,1,$1+$1,$8,$9*
0 Add four rect primitives between the rounded corners*
20,1,$1+$1,$2,$3,$4,$5,0*
20,1,$1+$1,$4,$5,$6,$7,0*
20,1,$1+$1,$6,$7,$8,$9,0*
20,1,$1+$1,$8,$9,$2,$3,0*%
G04 Aperture macros list end*
%TA.AperFunction,ComponentPad*%
%ADD10C,0.500000*%
%TD*%
%TA.AperFunction,SMDPad,CuDef*%
%ADD11RoundRect,0.400000X-0.600000X-0.600000X0.600000X-0.600000X0.600000X0.600000X-0.600000X0.600000X0*%
%TD*%
%TA.AperFunction,ComponentPad*%
%ADD12C,0.800000*%
%TD*%
%TA.AperFunction,SMDPad,CuDef*%
%ADD13RoundRect,1.000000X-1.500000X-1.500000X1.500000X-1.500000X1.500000X1.500000X-1.500000X1.500000X0*%
%TD*%
%TA.AperFunction,ComponentPad*%
%ADD14C,5.000000*%
%TD*%
%TA.AperFunction,Conductor*%
%ADD15C,4.000000*%
%TD*%
%TA.AperFunction,Conductor*%
%ADD16C,2.000000*%
%TD*%
G04 APERTURE END LIST*
D10*
%TO.P,J6,1,Pin_1*%
%TO.N,GND*%
X100500000Y-114500000D03*
X100500000Y-115500000D03*
D11*
X101000000Y-115000000D03*
D10*
X101500000Y-114500000D03*
X101500000Y-115500000D03*
%TD*%
%TO.P,J5,1,Pin_1*%
%TO.N,+BATT*%
X96500000Y-114500000D03*
X96500000Y-115500000D03*
D11*
X97000000Y-115000000D03*
D10*
X97500000Y-114500000D03*
X97500000Y-115500000D03*
%TD*%
D12*
%TO.P,J1,1,Pin_1*%
%TO.N,+BATT*%
X112000000Y-102500000D03*
X112000000Y-104000000D03*
X112000000Y-105500000D03*
X113500000Y-102500000D03*
X113500000Y-104000000D03*
D13*
X113500000Y-104000000D03*
D12*
X113500000Y-105500000D03*
X115000000Y-102500000D03*
X115000000Y-104000000D03*
X115000000Y-105500000D03*
%TD*%
%TO.P,J2,1,Pin_1*%
%TO.N,GND*%
X104000000Y-102500000D03*
X104000000Y-104000000D03*
X104000000Y-105500000D03*
X105500000Y-102500000D03*
X105500000Y-104000000D03*
D13*
X105500000Y-104000000D03*
D12*
X105500000Y-105500000D03*
X107000000Y-102500000D03*
X107000000Y-104000000D03*
X107000000Y-105500000D03*
%TD*%
%TO.P,J4,1,Pin_1*%
%TO.N,GND*%
X93000000Y-102500000D03*
X93000000Y-104000000D03*
X93000000Y-105500000D03*
X94500000Y-102500000D03*
X94500000Y-104000000D03*
D13*
X94500000Y-104000000D03*
D12*
X94500000Y-105500000D03*
X96000000Y-102500000D03*
X96000000Y-104000000D03*
X96000000Y-105500000D03*
%TD*%
%TO.P,J3,1,Pin_1*%
%TO.N,+BATT*%
X86000000Y-102500000D03*
X86000000Y-104000000D03*
X86000000Y-105500000D03*
X87500000Y-102500000D03*
X87500000Y-104000000D03*
D13*
X87500000Y-104000000D03*
D12*
X87500000Y-105500000D03*
X89000000Y-102500000D03*
X89000000Y-104000000D03*
X89000000Y-105500000D03*
%TD*%
D14*
%TO.P,H3,1,1*%
%TO.N,GND*%
X84750000Y-142500000D03*
%TD*%
%TO.P,H2,1,1*%
%TO.N,GND*%
X115250000Y-112000000D03*
%TD*%
%TO.P,H4,1,1*%
%TO.N,GND*%
X115250000Y-142500000D03*
%TD*%
%TO.P,H1,1,1*%
%TO.N,GND*%
X84750000Y-112000000D03*
%TD*%
D15*
%TO.N,+BATT*%
X97000000Y-110500000D02*
X109500000Y-110500000D01*
X113500000Y-106500000D02*
X113500000Y-104000000D01*
X109500000Y-110500000D02*
X113500000Y-106500000D01*
X91800000Y-110500000D02*
X97000000Y-110500000D01*
X87500000Y-106200000D02*
X91800000Y-110500000D01*
D16*
X97000000Y-115000000D02*
X97000000Y-110500000D01*
D15*
X87500000Y-104000000D02*
X87500000Y-106200000D01*
%TO.N,GND*%
X94500000Y-104000000D02*
X105500000Y-104000000D01*
%TD*%
%TA.AperFunction,Conductor*%
%TO.N,GND*%
G36*
X115001620Y-100010584D02*
G01*
X115147448Y-100018227D01*
X115309243Y-100026707D01*
X115315701Y-100027385D01*
X115618339Y-100075319D01*
X115624686Y-100076668D01*
X115920666Y-100155976D01*
X115926835Y-100157979D01*
X116212905Y-100267791D01*
X116218832Y-100270430D01*
X116491870Y-100409550D01*
X116497459Y-100412776D01*
X116754468Y-100579680D01*
X116759707Y-100583488D01*
X116997842Y-100776325D01*
X117002668Y-100780671D01*
X117219328Y-100997331D01*
X117223674Y-101002157D01*
X117416511Y-101240292D01*
X117420321Y-101245535D01*
X117587219Y-101502534D01*
X117590457Y-101508142D01*
X117729568Y-101781165D01*
X117732209Y-101787097D01*
X117842017Y-102073157D01*
X117844023Y-102079333D01*
X117923331Y-102375313D01*
X117924681Y-102381665D01*
X117972613Y-102684297D01*
X117973292Y-102690755D01*
X117989415Y-102998377D01*
X117989500Y-103001623D01*
X117989499Y-110355305D01*
X117969814Y-110422344D01*
X117917010Y-110468099D01*
X117849315Y-110478244D01*
X117834380Y-110476277D01*
X116661503Y-111649155D01*
X116660447Y-111642826D01*
X116582422Y-111415546D01*
X116468051Y-111204207D01*
X116320455Y-111014576D01*
X116143660Y-110851825D01*
X115942489Y-110720393D01*
X115722428Y-110623865D01*
X115597188Y-110592150D01*
X116776235Y-109413104D01*
X116752543Y-109397522D01*
X116752533Y-109397516D01*
X116440260Y-109240685D01*
X116440254Y-109240683D01*
X116111869Y-109121161D01*
X116111866Y-109121160D01*
X115771828Y-109040570D01*
X115424723Y-109000000D01*
X115075277Y-109000000D01*
X114819231Y-109029926D01*
X114750360Y-109018157D01*
X114698784Y-108971021D01*
X114680879Y-108903485D01*
X114702330Y-108836989D01*
X114717145Y-108819094D01*
X115240347Y-108295893D01*
X115326390Y-108215094D01*
X115401622Y-108124153D01*
X115479689Y-108035605D01*
X115500206Y-108005413D01*
X115503686Y-108000779D01*
X115526947Y-107972663D01*
X115526955Y-107972652D01*
X115590191Y-107873005D01*
X115623391Y-107824153D01*
X115656541Y-107775375D01*
X115673105Y-107742864D01*
X115675988Y-107737809D01*
X115695537Y-107707007D01*
X115745797Y-107600198D01*
X115799382Y-107495032D01*
X115811738Y-107460707D01*
X115813961Y-107455341D01*
X115829503Y-107422315D01*
X115865983Y-107310041D01*
X115905962Y-107198996D01*
X115913921Y-107163383D01*
X115915453Y-107157786D01*
X115926731Y-107123079D01*
X115948849Y-107007129D01*
X115974598Y-106891938D01*
X115978031Y-106855607D01*
X115978848Y-106849867D01*
X115985688Y-106814015D01*
X115993100Y-106696196D01*
X115995635Y-106669374D01*
X116021541Y-106604485D01*
X116038944Y-106586422D01*
X116064652Y-106564648D01*
X116064653Y-106564646D01*
X116064950Y-106564296D01*
X116118221Y-106501397D01*
X116225360Y-106374902D01*
X116225361Y-106374898D01*
X116225366Y-106374894D01*
X116352656Y-106161273D01*
X116412080Y-106008980D01*
X116443046Y-105929625D01*
X116443046Y-105929621D01*
X116443050Y-105929614D01*
X116494081Y-105686237D01*
X116500500Y-105582842D01*
X116500500Y-102417158D01*
X116494081Y-102313763D01*
X116443050Y-102070386D01*
X116443048Y-102070381D01*
X116443046Y-102070374D01*
X116352657Y-101838730D01*
X116352656Y-101838727D01*
X116225366Y-101625106D01*
X116225363Y-101625103D01*
X116225360Y-101625097D01*
X116064651Y-101435350D01*
X116064649Y-101435348D01*
X115874902Y-101274639D01*
X115874894Y-101274634D01*
X115661273Y-101147344D01*
X115661271Y-101147343D01*
X115661269Y-101147342D01*
X115429625Y-101056953D01*
X115429615Y-101056950D01*
X115186238Y-101005919D01*
X115186235Y-101005918D01*
X115082845Y-100999500D01*
X115082842Y-100999500D01*
X111917158Y-100999500D01*
X111917155Y-100999500D01*
X111813764Y-101005918D01*
X111813761Y-101005919D01*
X111570384Y-101056950D01*
X111570374Y-101056953D01*
X111338730Y-101147342D01*
X111125097Y-101274639D01*
X110935350Y-101435348D01*
X110935348Y-101435350D01*
X110774639Y-101625097D01*
X110647342Y-101838730D01*
X110556953Y-102070374D01*
X110556950Y-102070384D01*
X110505919Y-102313761D01*
X110505918Y-102313764D01*
X110499500Y-102417155D01*
X110499500Y-105582845D01*
X110505918Y-105686235D01*
X110505919Y-105686242D01*
X110539225Y-105845085D01*
X110533717Y-105914737D01*
X110505545Y-105958212D01*
X108500578Y-107963181D01*
X108439255Y-107996666D01*
X108412897Y-107999500D01*
X92887103Y-107999500D01*
X92820064Y-107979815D01*
X92799422Y-107963181D01*
X90535286Y-105699045D01*
X90501801Y-105637722D01*
X90499206Y-105603674D01*
X90499351Y-105601351D01*
X90500500Y-105582842D01*
X90500500Y-104750000D01*
X91500000Y-104750000D01*
X91500000Y-105582807D01*
X91506417Y-105686173D01*
X91506418Y-105686176D01*
X91557432Y-105929472D01*
X91557435Y-105929482D01*
X91647793Y-106161049D01*
X91775046Y-106374608D01*
X91935703Y-106564294D01*
X91935705Y-106564296D01*
X92125391Y-106724953D01*
X92338950Y-106852206D01*
X92570517Y-106942564D01*
X92570527Y-106942567D01*
X92813823Y-106993581D01*
X92813826Y-106993582D01*
X92917193Y-107000000D01*
X93750000Y-107000000D01*
X93750000Y-105545649D01*
X94300000Y-105545649D01*
X94339613Y-105627905D01*
X94410992Y-105684827D01*
X94477468Y-105700000D01*
X94522532Y-105700000D01*
X94589008Y-105684827D01*
X94660387Y-105627905D01*
X94700000Y-105545649D01*
X94700000Y-105454351D01*
X94660387Y-105372095D01*
X94589008Y-105315173D01*
X94522532Y-105300000D01*
X94477468Y-105300000D01*
X94410992Y-105315173D01*
X94339613Y-105372095D01*
X94300000Y-105454351D01*
X94300000Y-105545649D01*
X93750000Y-105545649D01*
X93750000Y-104750000D01*
X95250000Y-104750000D01*
X95250000Y-107000000D01*
X96082807Y-107000000D01*
X96186173Y-106993582D01*
X96186176Y-106993581D01*
X96429472Y-106942567D01*
X96429482Y-106942564D01*
X96661049Y-106852206D01*
X96746145Y-106801500D01*
X98365139Y-106801500D01*
X98543259Y-106801500D01*
X99345830Y-105998928D01*
X98698000Y-105351097D01*
X98698000Y-105601351D01*
X98696850Y-105638478D01*
X98687799Y-105784278D01*
X98683990Y-105822943D01*
X98677584Y-105870338D01*
X98670991Y-105908624D01*
X98609465Y-106202050D01*
X98598577Y-106245051D01*
X98582986Y-106297438D01*
X98568557Y-106339474D01*
X98458317Y-106621995D01*
X98440479Y-106662661D01*
X98416472Y-106711768D01*
X98395340Y-106750815D01*
X98365139Y-106801500D01*
X96746145Y-106801500D01*
X96874608Y-106724953D01*
X97064294Y-106564296D01*
X97064296Y-106564294D01*
X97224953Y-106374608D01*
X97352206Y-106161049D01*
X97442564Y-105929482D01*
X97442567Y-105929472D01*
X97493581Y-105686176D01*
X97493582Y-105686173D01*
X97500000Y-105582807D01*
X97500000Y-104750000D01*
X95250000Y-104750000D01*
X93750000Y-104750000D01*
X91500000Y-104750000D01*
X90500500Y-104750000D01*
X90500500Y-104045649D01*
X92800000Y-104045649D01*
X92839613Y-104127905D01*
X92910992Y-104184827D01*
X92977468Y-104200000D01*
X93022532Y-104200000D01*
X93089008Y-104184827D01*
X93160387Y-104127905D01*
X93200000Y-104045649D01*
X94300000Y-104045649D01*
X94339613Y-104127905D01*
X94410992Y-104184827D01*
X94477468Y-104200000D01*
X94522532Y-104200000D01*
X94589008Y-104184827D01*
X94660387Y-104127905D01*
X94700000Y-104045649D01*
X95800000Y-104045649D01*
X95839613Y-104127905D01*
X95910992Y-104184827D01*
X95977468Y-104200000D01*
X96022532Y-104200000D01*
X96089008Y-104184827D01*
X96160387Y-104127905D01*
X96178767Y-104089740D01*
X99130869Y-104089740D01*
X100192944Y-105151814D01*
X100594758Y-104750000D01*
X102500000Y-104750000D01*
X102500000Y-105582807D01*
X102506417Y-105686173D01*
X102506418Y-105686176D01*
X102557432Y-105929472D01*
X102557435Y-105929482D01*
X102647793Y-106161049D01*
X102775046Y-106374608D01*
X102935703Y-106564294D01*
X102935705Y-106564296D01*
X103125391Y-106724953D01*
X103338950Y-106852206D01*
X103570517Y-106942564D01*
X103570527Y-106942567D01*
X103813823Y-106993581D01*
X103813826Y-106993582D01*
X103917193Y-107000000D01*
X104750000Y-107000000D01*
X104750000Y-105545649D01*
X105300000Y-105545649D01*
X105339613Y-105627905D01*
X105410992Y-105684827D01*
X105477468Y-105700000D01*
X105522532Y-105700000D01*
X105589008Y-105684827D01*
X105660387Y-105627905D01*
X105700000Y-105545649D01*
X105700000Y-105454351D01*
X105660387Y-105372095D01*
X105589008Y-105315173D01*
X105522532Y-105300000D01*
X105477468Y-105300000D01*
X105410992Y-105315173D01*
X105339613Y-105372095D01*
X105300000Y-105454351D01*
X105300000Y-105545649D01*
X104750000Y-105545649D01*
X104750000Y-104750000D01*
X106250000Y-104750000D01*
X106250000Y-107000000D01*
X107082807Y-107000000D01*
X107186173Y-106993582D01*
X107186176Y-106993581D01*
X107429472Y-106942567D01*
X107429482Y-106942564D01*
X107661049Y-106852206D01*
X107874608Y-106724953D01*
X108064294Y-106564296D01*
X108064296Y-106564294D01*
X108224953Y-106374608D01*
X108352206Y-106161049D01*
X108442564Y-105929482D01*
X108442567Y-105929472D01*
X108493581Y-105686176D01*
X108493582Y-105686173D01*
X108500000Y-105582807D01*
X108500000Y-104750000D01*
X106250000Y-104750000D01*
X104750000Y-104750000D01*
X102500000Y-104750000D01*
X100594758Y-104750000D01*
X101255019Y-104089740D01*
X101210928Y-104045649D01*
X103800000Y-104045649D01*
X103839613Y-104127905D01*
X103910992Y-104184827D01*
X103977468Y-104200000D01*
X104022532Y-104200000D01*
X104089008Y-104184827D01*
X104160387Y-104127905D01*
X104200000Y-104045649D01*
X105300000Y-104045649D01*
X105339613Y-104127905D01*
X105410992Y-104184827D01*
X105477468Y-104200000D01*
X105522532Y-104200000D01*
X105589008Y-104184827D01*
X105660387Y-104127905D01*
X105700000Y-104045649D01*
X106800000Y-104045649D01*
X106839613Y-104127905D01*
X106910992Y-104184827D01*
X106977468Y-104200000D01*
X107022532Y-104200000D01*
X107089008Y-104184827D01*
X107160387Y-104127905D01*
X107200000Y-104045649D01*
X107200000Y-103954351D01*
X107160387Y-103872095D01*
X107089008Y-103815173D01*
X107022532Y-103800000D01*
X106977468Y-103800000D01*
X106910992Y-103815173D01*
X106839613Y-103872095D01*
X106800000Y-103954351D01*
X106800000Y-104045649D01*
X105700000Y-104045649D01*
X105700000Y-103954351D01*
X105660387Y-103872095D01*
X105589008Y-103815173D01*
X105522532Y-103800000D01*
X105477468Y-103800000D01*
X105410992Y-103815173D01*
X105339613Y-103872095D01*
X105300000Y-103954351D01*
X105300000Y-104045649D01*
X104200000Y-104045649D01*
X104200000Y-103954351D01*
X104160387Y-103872095D01*
X104089008Y-103815173D01*
X104022532Y-103800000D01*
X103977468Y-103800000D01*
X103910992Y-103815173D01*
X103839613Y-103872095D01*
X103800000Y-103954351D01*
X103800000Y-104045649D01*
X101210928Y-104045649D01*
X100415279Y-103250000D01*
X102500000Y-103250000D01*
X104750000Y-103250000D01*
X104750000Y-102545649D01*
X105300000Y-102545649D01*
X105339613Y-102627905D01*
X105410992Y-102684827D01*
X105477468Y-102700000D01*
X105522532Y-102700000D01*
X105589008Y-102684827D01*
X105660387Y-102627905D01*
X105700000Y-102545649D01*
X105700000Y-102454351D01*
X105660387Y-102372095D01*
X105589008Y-102315173D01*
X105522532Y-102300000D01*
X105477468Y-102300000D01*
X105410992Y-102315173D01*
X105339613Y-102372095D01*
X105300000Y-102454351D01*
X105300000Y-102545649D01*
X104750000Y-102545649D01*
X104750000Y-101000000D01*
X106250000Y-101000000D01*
X106250000Y-103250000D01*
X108500000Y-103250000D01*
X108500000Y-102417193D01*
X108493582Y-102313826D01*
X108493581Y-102313823D01*
X108442567Y-102070527D01*
X108442564Y-102070517D01*
X108352206Y-101838950D01*
X108224953Y-101625391D01*
X108064296Y-101435705D01*
X108064294Y-101435703D01*
X107874608Y-101275046D01*
X107661049Y-101147793D01*
X107429482Y-101057435D01*
X107429472Y-101057432D01*
X107186176Y-101006418D01*
X107186173Y-101006417D01*
X107082807Y-101000000D01*
X106250000Y-101000000D01*
X104750000Y-101000000D01*
X103917193Y-101000000D01*
X103813826Y-101006417D01*
X103813823Y-101006418D01*
X103570527Y-101057432D01*
X103570517Y-101057435D01*
X103338950Y-101147793D01*
X103125391Y-101275046D01*
X102935705Y-101435703D01*
X102935703Y-101435705D01*
X102775046Y-101625391D01*
X102647793Y-101838950D01*
X102557435Y-102070517D01*
X102557432Y-102070527D01*
X102506418Y-102313823D01*
X102506417Y-102313826D01*
X102500000Y-102417193D01*
X102500000Y-103250000D01*
X100415279Y-103250000D01*
X100192944Y-103027665D01*
X99130869Y-104089740D01*
X96178767Y-104089740D01*
X96200000Y-104045649D01*
X96200000Y-103954351D01*
X96160387Y-103872095D01*
X96089008Y-103815173D01*
X96022532Y-103800000D01*
X95977468Y-103800000D01*
X95910992Y-103815173D01*
X95839613Y-103872095D01*
X95800000Y-103954351D01*
X95800000Y-104045649D01*
X94700000Y-104045649D01*
X94700000Y-103954351D01*
X94660387Y-103872095D01*
X94589008Y-103815173D01*
X94522532Y-103800000D01*
X94477468Y-103800000D01*
X94410992Y-103815173D01*
X94339613Y-103872095D01*
X94300000Y-103954351D01*
X94300000Y-104045649D01*
X93200000Y-104045649D01*
X93200000Y-103954351D01*
X93160387Y-103872095D01*
X93089008Y-103815173D01*
X93022532Y-103800000D01*
X92977468Y-103800000D01*
X92910992Y-103815173D01*
X92839613Y-103872095D01*
X92800000Y-103954351D01*
X92800000Y-104045649D01*
X90500500Y-104045649D01*
X90500500Y-103250000D01*
X91500000Y-103250000D01*
X93750000Y-103250000D01*
X93750000Y-102545649D01*
X94300000Y-102545649D01*
X94339613Y-102627905D01*
X94410992Y-102684827D01*
X94477468Y-102700000D01*
X94522532Y-102700000D01*
X94589008Y-102684827D01*
X94660387Y-102627905D01*
X94700000Y-102545649D01*
X94700000Y-102454351D01*
X94660387Y-102372095D01*
X94589008Y-102315173D01*
X94522532Y-102300000D01*
X94477468Y-102300000D01*
X94410992Y-102315173D01*
X94339613Y-102372095D01*
X94300000Y-102454351D01*
X94300000Y-102545649D01*
X93750000Y-102545649D01*
X93750000Y-101000000D01*
X95250000Y-101000000D01*
X95250000Y-103250000D01*
X97500000Y-103250000D01*
X97500000Y-102417193D01*
X97493582Y-102313826D01*
X97493581Y-102313823D01*
X97442567Y-102070527D01*
X97442564Y-102070517D01*
X97352206Y-101838950D01*
X97224953Y-101625391D01*
X97064296Y-101435705D01*
X97064294Y-101435703D01*
X96874608Y-101275046D01*
X96762929Y-101208500D01*
X98371097Y-101208500D01*
X98395340Y-101249185D01*
X98416472Y-101288232D01*
X98440479Y-101337339D01*
X98458317Y-101378005D01*
X98568557Y-101660526D01*
X98582986Y-101702562D01*
X98598577Y-101754949D01*
X98609465Y-101797950D01*
X98670991Y-102091376D01*
X98677584Y-102129662D01*
X98683990Y-102177057D01*
X98687799Y-102215722D01*
X98696850Y-102361522D01*
X98698000Y-102398649D01*
X98698000Y-102828382D01*
X99345830Y-102180551D01*
X98373779Y-101208500D01*
X98371097Y-101208500D01*
X96762929Y-101208500D01*
X96661049Y-101147793D01*
X96429482Y-101057435D01*
X96429472Y-101057432D01*
X96186176Y-101006418D01*
X96186173Y-101006417D01*
X96082807Y-101000000D01*
X95250000Y-101000000D01*
X93750000Y-101000000D01*
X92917193Y-101000000D01*
X92813826Y-101006417D01*
X92813823Y-101006418D01*
X92570527Y-101057432D01*
X92570517Y-101057435D01*
X92338950Y-101147793D01*
X92125391Y-101275046D01*
X91935705Y-101435703D01*
X91935703Y-101435705D01*
X91775046Y-101625391D01*
X91647793Y-101838950D01*
X91557435Y-102070517D01*
X91557432Y-102070527D01*
X91506418Y-102313823D01*
X91506417Y-102313826D01*
X91500000Y-102417193D01*
X91500000Y-103250000D01*
X90500500Y-103250000D01*
X90500500Y-102417158D01*
X90494081Y-102313763D01*
X90443050Y-102070386D01*
X90443048Y-102070381D01*
X90443046Y-102070374D01*
X90352657Y-101838730D01*
X90352656Y-101838727D01*
X90225366Y-101625106D01*
X90225363Y-101625103D01*
X90225360Y-101625097D01*
X90064651Y-101435350D01*
X90064649Y-101435348D01*
X89874902Y-101274639D01*
X89874894Y-101274634D01*
X89661273Y-101147344D01*
X89661271Y-101147343D01*
X89661269Y-101147342D01*
X89429625Y-101056953D01*
X89429615Y-101056950D01*
X89186238Y-101005919D01*
X89186235Y-101005918D01*
X89082845Y-100999500D01*
X89082842Y-100999500D01*
X85917158Y-100999500D01*
X85917155Y-100999500D01*
X85813764Y-101005918D01*
X85813761Y-101005919D01*
X85570384Y-101056950D01*
X85570374Y-101056953D01*
X85338730Y-101147342D01*
X85125097Y-101274639D01*
X84935350Y-101435348D01*
X84935348Y-101435350D01*
X84774639Y-101625097D01*
X84647342Y-101838730D01*
X84556953Y-102070374D01*
X84556950Y-102070384D01*
X84505919Y-102313761D01*
X84505918Y-102313764D01*
X84499500Y-102417155D01*
X84499500Y-105582845D01*
X84505918Y-105686235D01*
X84505919Y-105686238D01*
X84556950Y-105929615D01*
X84556953Y-105929625D01*
X84647342Y-106161269D01*
X84647344Y-106161273D01*
X84774464Y-106374608D01*
X84774639Y-106374902D01*
X84935348Y-106564649D01*
X84935349Y-106564650D01*
X85007121Y-106625438D01*
X85045556Y-106683786D01*
X85047991Y-106692998D01*
X85051150Y-106707129D01*
X85073269Y-106823079D01*
X85081962Y-106849834D01*
X85084540Y-106857769D01*
X85086082Y-106863404D01*
X85094038Y-106898998D01*
X85134020Y-107010051D01*
X85170494Y-107122308D01*
X85170500Y-107122322D01*
X85186025Y-107155315D01*
X85188261Y-107160713D01*
X85200618Y-107195034D01*
X85254210Y-107300215D01*
X85304460Y-107407003D01*
X85324001Y-107437795D01*
X85326897Y-107442871D01*
X85343455Y-107475367D01*
X85343460Y-107475377D01*
X85409808Y-107573005D01*
X85473051Y-107672661D01*
X85473053Y-107672664D01*
X85496300Y-107700765D01*
X85499809Y-107705438D01*
X85520312Y-107735606D01*
X85598377Y-107824153D01*
X85673606Y-107915090D01*
X85673608Y-107915092D01*
X85759652Y-107995894D01*
X90004105Y-112240347D01*
X90048568Y-112287694D01*
X90084906Y-112326390D01*
X90122118Y-112357174D01*
X90175846Y-112401622D01*
X90264393Y-112479688D01*
X90279106Y-112489686D01*
X90294563Y-112500191D01*
X90299230Y-112503694D01*
X90327337Y-112526947D01*
X90327341Y-112526950D01*
X90417954Y-112584454D01*
X90426994Y-112590191D01*
X90524625Y-112656541D01*
X90524633Y-112656545D01*
X90524638Y-112656548D01*
X90557125Y-112673101D01*
X90562202Y-112675997D01*
X90592981Y-112695530D01*
X90592987Y-112695533D01*
X90592993Y-112695537D01*
X90699801Y-112745797D01*
X90804968Y-112799382D01*
X90804971Y-112799383D01*
X90804973Y-112799384D01*
X90804976Y-112799385D01*
X90839278Y-112811734D01*
X90844670Y-112813966D01*
X90877685Y-112829503D01*
X90877687Y-112829503D01*
X90877690Y-112829505D01*
X90989946Y-112865979D01*
X90989958Y-112865983D01*
X91101004Y-112905962D01*
X91118313Y-112909831D01*
X91136591Y-112913917D01*
X91142228Y-112915459D01*
X91173538Y-112925631D01*
X91176921Y-112926731D01*
X91292870Y-112948849D01*
X91408062Y-112974598D01*
X91444382Y-112978030D01*
X91450152Y-112978852D01*
X91485985Y-112985688D01*
X91485988Y-112985688D01*
X91485991Y-112985689D01*
X91603802Y-112993100D01*
X91603803Y-112993100D01*
X91721302Y-113004207D01*
X91839272Y-113000500D01*
X95375500Y-113000500D01*
X95442539Y-113020185D01*
X95488294Y-113072989D01*
X95499500Y-113124500D01*
X95499500Y-115062073D01*
X95499501Y-115663022D01*
X95499501Y-115663021D01*
X95505687Y-115741643D01*
X95517850Y-115787034D01*
X95554680Y-115924488D01*
X95576783Y-115967868D01*
X95640614Y-116093146D01*
X95689859Y-116153958D01*
X95759743Y-116240257D01*
X95866311Y-116326554D01*
X95906853Y-116359385D01*
X95970830Y-116391982D01*
X96075512Y-116445320D01*
X96258355Y-116494312D01*
X96289804Y-116496787D01*
X96336976Y-116500500D01*
X96336978Y-116500499D01*
X96336979Y-116500500D01*
X96865662Y-116500499D01*
X96865676Y-116500500D01*
X96875665Y-116500500D01*
X97134325Y-116500500D01*
X97134337Y-116500499D01*
X97663021Y-116500499D01*
X97689228Y-116498436D01*
X97741645Y-116494312D01*
X97924488Y-116445320D01*
X98053008Y-116379835D01*
X98093146Y-116359385D01*
X98093147Y-116359383D01*
X98093149Y-116359383D01*
X98240257Y-116240257D01*
X98359383Y-116093149D01*
X98445320Y-115924488D01*
X98492073Y-115750000D01*
X99508445Y-115750000D01*
X99555150Y-115924307D01*
X99641037Y-116092873D01*
X99641038Y-116092875D01*
X99760099Y-116239900D01*
X99907124Y-116358961D01*
X99907126Y-116358962D01*
X100075692Y-116444849D01*
X100250000Y-116491554D01*
X100250000Y-115750000D01*
X101750000Y-115750000D01*
X101750000Y-116491553D01*
X101924307Y-116444849D01*
X102092873Y-116358962D01*
X102092875Y-116358961D01*
X102239900Y-116239900D01*
X102358961Y-116092875D01*
X102358962Y-116092873D01*
X102444849Y-115924307D01*
X102491555Y-115750000D01*
X101750000Y-115750000D01*
X100250000Y-115750000D01*
X99508445Y-115750000D01*
X98492073Y-115750000D01*
X98494312Y-115741645D01*
X98500500Y-115663021D01*
X98500500Y-115500000D01*
X100344709Y-115500000D01*
X100365514Y-115577645D01*
X100422355Y-115634486D01*
X100480254Y-115650000D01*
X100519746Y-115650000D01*
X100577645Y-115634486D01*
X100634486Y-115577646D01*
X100655291Y-115500000D01*
X101344709Y-115500000D01*
X101365514Y-115577645D01*
X101422355Y-115634486D01*
X101480254Y-115650000D01*
X101519746Y-115650000D01*
X101577645Y-115634486D01*
X101634486Y-115577646D01*
X101655291Y-115500000D01*
X101634486Y-115422355D01*
X101577645Y-115365514D01*
X101519746Y-115350000D01*
X101480254Y-115350000D01*
X101422355Y-115365514D01*
X101365514Y-115422354D01*
X101344709Y-115500000D01*
X100655291Y-115500000D01*
X100634486Y-115422355D01*
X100577645Y-115365514D01*
X100519746Y-115350000D01*
X100480254Y-115350000D01*
X100422355Y-115365514D01*
X100365514Y-115422354D01*
X100344709Y-115500000D01*
X98500500Y-115500000D01*
X98500500Y-115038480D01*
X103455633Y-115038480D01*
X103614064Y-115244953D01*
X103637305Y-115296248D01*
X103723733Y-115730750D01*
X103721891Y-115787034D01*
X103609788Y-116205413D01*
X104011320Y-116606944D01*
X105073395Y-115544870D01*
X106767622Y-115544870D01*
X107829697Y-116606945D01*
X108891772Y-115544870D01*
X108891771Y-115544869D01*
X110585999Y-115544869D01*
X111648074Y-116606945D01*
X112710149Y-115544870D01*
X111648074Y-114482794D01*
X110585999Y-115544869D01*
X108891771Y-115544869D01*
X107829697Y-114482795D01*
X106767622Y-115544870D01*
X105073395Y-115544870D01*
X104011319Y-114482794D01*
X103455633Y-115038480D01*
X98500500Y-115038480D01*
X98500500Y-115022037D01*
X98500500Y-114500000D01*
X100344709Y-114500000D01*
X100365514Y-114577645D01*
X100422355Y-114634486D01*
X100480254Y-114650000D01*
X100519746Y-114650000D01*
X100577645Y-114634486D01*
X100634486Y-114577646D01*
X100655291Y-114500000D01*
X101344709Y-114500000D01*
X101365514Y-114577645D01*
X101422355Y-114634486D01*
X101480254Y-114650000D01*
X101519746Y-114650000D01*
X101577645Y-114634486D01*
X101634486Y-114577646D01*
X101655291Y-114500000D01*
X101634486Y-114422355D01*
X101577645Y-114365514D01*
X101519746Y-114350000D01*
X101480254Y-114350000D01*
X101422355Y-114365514D01*
X101365514Y-114422354D01*
X101344709Y-114500000D01*
X100655291Y-114500000D01*
X100634486Y-114422355D01*
X100577645Y-114365514D01*
X100519746Y-114350000D01*
X100480254Y-114350000D01*
X100422355Y-114365514D01*
X100365514Y-114422354D01*
X100344709Y-114500000D01*
X98500500Y-114500000D01*
X98500500Y-114250000D01*
X99508445Y-114250000D01*
X100250000Y-114250000D01*
X100250000Y-113508444D01*
X101750000Y-113508444D01*
X101750000Y-114250000D01*
X102491554Y-114250000D01*
X102444849Y-114075692D01*
X102358962Y-113907126D01*
X102358961Y-113907124D01*
X102239900Y-113760099D01*
X102092876Y-113641039D01*
X101924307Y-113555149D01*
X101750000Y-113508444D01*
X100250000Y-113508444D01*
X100249999Y-113508444D01*
X100075692Y-113555149D01*
X99907123Y-113641039D01*
X99760099Y-113760099D01*
X99641038Y-113907124D01*
X99641037Y-113907126D01*
X99555150Y-114075692D01*
X99508445Y-114250000D01*
X98500500Y-114250000D01*
X98500500Y-113124500D01*
X98520185Y-113057461D01*
X98572989Y-113011706D01*
X98624500Y-113000500D01*
X109460728Y-113000500D01*
X109578698Y-113004207D01*
X109696196Y-112993100D01*
X109814015Y-112985688D01*
X109849867Y-112978848D01*
X109855607Y-112978031D01*
X109891938Y-112974598D01*
X110007129Y-112948849D01*
X110123079Y-112926731D01*
X110157786Y-112915453D01*
X110163383Y-112913921D01*
X110198996Y-112905962D01*
X110310051Y-112865979D01*
X110422315Y-112829503D01*
X110455330Y-112813966D01*
X110460701Y-112811741D01*
X110495032Y-112799383D01*
X110600215Y-112745789D01*
X110707007Y-112695537D01*
X110737813Y-112675985D01*
X110742869Y-112673102D01*
X110775375Y-112656541D01*
X110873005Y-112590191D01*
X110882045Y-112584454D01*
X110972652Y-112526955D01*
X110972663Y-112526947D01*
X111000779Y-112503686D01*
X111005413Y-112500206D01*
X111035605Y-112479689D01*
X111124153Y-112401622D01*
X111215094Y-112326390D01*
X111295893Y-112240347D01*
X112068524Y-111467715D01*
X112129843Y-111434233D01*
X112199534Y-111439217D01*
X112255468Y-111481088D01*
X112279885Y-111546553D01*
X112278317Y-111576930D01*
X112265236Y-111651116D01*
X112265235Y-111651130D01*
X112244916Y-111999996D01*
X112244916Y-112000003D01*
X112265235Y-112348869D01*
X112265236Y-112348880D01*
X112325914Y-112693002D01*
X112325916Y-112693011D01*
X112426145Y-113027800D01*
X112564555Y-113348670D01*
X112564561Y-113348683D01*
X112665619Y-113523719D01*
X112665620Y-113523720D01*
X113838496Y-112350843D01*
X113839553Y-112357174D01*
X113917578Y-112584454D01*
X114031949Y-112795793D01*
X114179545Y-112985424D01*
X114356340Y-113148175D01*
X114557511Y-113279607D01*
X114777572Y-113376135D01*
X114902810Y-113407849D01*
X113723764Y-114586894D01*
X113723764Y-114586895D01*
X113747460Y-114602480D01*
X113747465Y-114602483D01*
X114059739Y-114759313D01*
X114059745Y-114759316D01*
X114388130Y-114878838D01*
X114388133Y-114878839D01*
X114728171Y-114959429D01*
X115075276Y-114999999D01*
X115075277Y-115000000D01*
X115424723Y-115000000D01*
X115424723Y-114999999D01*
X115771827Y-114959429D01*
X115771829Y-114959429D01*
X116111866Y-114878839D01*
X116111869Y-114878838D01*
X116440254Y-114759316D01*
X116440260Y-114759313D01*
X116752536Y-114602482D01*
X116776235Y-114586894D01*
X115597189Y-113407849D01*
X115722428Y-113376135D01*
X115942489Y-113279607D01*
X116143660Y-113148175D01*
X116320455Y-112985424D01*
X116468051Y-112795793D01*
X116582422Y-112584454D01*
X116660447Y-112357174D01*
X116661503Y-112350844D01*
X117834379Y-113523720D01*
X117849315Y-113521754D01*
X117918350Y-113532520D01*
X117970606Y-113578900D01*
X117989500Y-113644693D01*
X117989500Y-140855305D01*
X117969815Y-140922344D01*
X117917011Y-140968099D01*
X117849316Y-140978244D01*
X117834380Y-140976277D01*
X116661503Y-142149155D01*
X116660447Y-142142826D01*
X116582422Y-141915546D01*
X116468051Y-141704207D01*
X116320455Y-141514576D01*
X116143660Y-141351825D01*
X115942489Y-141220393D01*
X115722428Y-141123865D01*
X115597189Y-141092150D01*
X116776235Y-139913104D01*
X116752543Y-139897522D01*
X116752533Y-139897516D01*
X116440260Y-139740685D01*
X116440254Y-139740683D01*
X116111869Y-139621161D01*
X116111866Y-139621160D01*
X115771828Y-139540570D01*
X115424723Y-139500000D01*
X115075277Y-139500000D01*
X114728172Y-139540570D01*
X114728170Y-139540570D01*
X114388133Y-139621160D01*
X114388130Y-139621161D01*
X114059745Y-139740683D01*
X114059739Y-139740685D01*
X113747457Y-139897521D01*
X113747455Y-139897522D01*
X113723764Y-139913103D01*
X113723764Y-139913104D01*
X114902810Y-141092150D01*
X114777572Y-141123865D01*
X114557511Y-141220393D01*
X114356340Y-141351825D01*
X114179545Y-141514576D01*
X114031949Y-141704207D01*
X113917578Y-141915546D01*
X113839553Y-142142826D01*
X113838496Y-142149155D01*
X112665619Y-140976279D01*
X112564561Y-141151316D01*
X112564555Y-141151329D01*
X112426145Y-141472199D01*
X112325916Y-141806988D01*
X112325914Y-141806997D01*
X112265236Y-142151119D01*
X112265235Y-142151130D01*
X112244916Y-142499996D01*
X112244916Y-142500003D01*
X112265235Y-142848869D01*
X112265236Y-142848880D01*
X112325914Y-143193002D01*
X112325916Y-143193011D01*
X112426145Y-143527800D01*
X112564555Y-143848670D01*
X112564561Y-143848683D01*
X112665619Y-144023719D01*
X112665620Y-144023720D01*
X113838496Y-142850843D01*
X113839553Y-142857174D01*
X113917578Y-143084454D01*
X114031949Y-143295793D01*
X114179545Y-143485424D01*
X114356340Y-143648175D01*
X114557511Y-143779607D01*
X114777572Y-143876135D01*
X114902810Y-143907849D01*
X113723764Y-145086894D01*
X113723764Y-145086895D01*
X113747460Y-145102480D01*
X113747465Y-145102483D01*
X114059739Y-145259313D01*
X114059745Y-145259316D01*
X114388130Y-145378838D01*
X114388133Y-145378839D01*
X114728171Y-145459429D01*
X115075276Y-145499999D01*
X115075277Y-145500000D01*
X115424723Y-145500000D01*
X115424723Y-145499999D01*
X115771827Y-145459429D01*
X115771829Y-145459429D01*
X116111866Y-145378839D01*
X116111869Y-145378838D01*
X116440254Y-145259316D01*
X116440260Y-145259313D01*
X116752536Y-145102482D01*
X116776235Y-145086894D01*
X115597189Y-143907849D01*
X115722428Y-143876135D01*
X115942489Y-143779607D01*
X116143660Y-143648175D01*
X116320455Y-143485424D01*
X116468051Y-143295793D01*
X116582422Y-143084454D01*
X116660447Y-142857174D01*
X116661503Y-142850844D01*
X117834379Y-144023720D01*
X117849313Y-144021754D01*
X117918349Y-144032519D01*
X117970605Y-144078899D01*
X117989499Y-144144693D01*
X117989500Y-150996587D01*
X117989500Y-150998376D01*
X117989415Y-151001622D01*
X117973292Y-151309244D01*
X117972613Y-151315702D01*
X117924681Y-151618334D01*
X117923331Y-151624686D01*
X117844023Y-151920666D01*
X117842017Y-151926842D01*
X117732209Y-152212902D01*
X117729568Y-152218834D01*
X117590457Y-152491857D01*
X117587214Y-152497473D01*
X117493432Y-152641886D01*
X117420329Y-152754454D01*
X117416511Y-152759707D01*
X117223674Y-152997842D01*
X117219328Y-153002668D01*
X117002668Y-153219328D01*
X116997842Y-153223674D01*
X116759707Y-153416511D01*
X116754455Y-153420327D01*
X116497473Y-153587214D01*
X116491857Y-153590457D01*
X116218834Y-153729568D01*
X116212902Y-153732209D01*
X115926842Y-153842017D01*
X115920666Y-153844023D01*
X115624686Y-153923331D01*
X115618334Y-153924681D01*
X115315702Y-153972613D01*
X115309244Y-153973292D01*
X115018515Y-153988529D01*
X115001620Y-153989415D01*
X114998377Y-153989500D01*
X85001623Y-153989500D01*
X84998379Y-153989415D01*
X84980615Y-153988484D01*
X84690755Y-153973292D01*
X84684297Y-153972613D01*
X84381665Y-153924681D01*
X84375313Y-153923331D01*
X84079333Y-153844023D01*
X84073157Y-153842017D01*
X83787097Y-153732209D01*
X83781165Y-153729568D01*
X83650611Y-153663048D01*
X83508135Y-153590453D01*
X83502534Y-153587219D01*
X83245535Y-153420321D01*
X83240292Y-153416511D01*
X83002157Y-153223674D01*
X82997331Y-153219328D01*
X82780671Y-153002668D01*
X82776325Y-152997842D01*
X82583488Y-152759707D01*
X82579680Y-152754468D01*
X82412776Y-152497459D01*
X82409550Y-152491870D01*
X82270430Y-152218832D01*
X82267790Y-152212902D01*
X82157982Y-151926842D01*
X82155976Y-151920666D01*
X82128855Y-151819448D01*
X85766551Y-151819448D01*
X86738603Y-152791500D01*
X86918649Y-152791500D01*
X87890700Y-151819448D01*
X89584927Y-151819448D01*
X90556979Y-152791500D01*
X90737025Y-152791500D01*
X91709077Y-151819448D01*
X93403304Y-151819448D01*
X94375356Y-152791500D01*
X94555402Y-152791500D01*
X95527454Y-151819448D01*
X97221681Y-151819448D01*
X98193733Y-152791500D01*
X98373779Y-152791500D01*
X99345830Y-151819448D01*
X101040057Y-151819448D01*
X102012109Y-152791500D01*
X102192155Y-152791500D01*
X103164207Y-151819448D01*
X104858434Y-151819448D01*
X105830486Y-152791500D01*
X106010532Y-152791500D01*
X106982584Y-151819448D01*
X106982583Y-151819447D01*
X108676809Y-151819447D01*
X109648862Y-152791500D01*
X109828908Y-152791500D01*
X110800960Y-151819447D01*
X112495187Y-151819447D01*
X113467239Y-152791500D01*
X113647285Y-152791500D01*
X114619337Y-151819447D01*
X113557262Y-150757373D01*
X112495187Y-151819447D01*
X110800960Y-151819447D01*
X109738885Y-150757373D01*
X108676809Y-151819447D01*
X106982583Y-151819447D01*
X105920509Y-150757373D01*
X104858434Y-151819448D01*
X103164207Y-151819448D01*
X102102132Y-150757373D01*
X101040057Y-151819448D01*
X99345830Y-151819448D01*
X98283755Y-150757373D01*
X97221681Y-151819448D01*
X95527454Y-151819448D01*
X94465379Y-150757373D01*
X93403304Y-151819448D01*
X91709077Y-151819448D01*
X90647002Y-150757373D01*
X89584927Y-151819448D01*
X87890700Y-151819448D01*
X87890701Y-151819447D01*
X86828625Y-150757373D01*
X85766551Y-151819448D01*
X82128855Y-151819448D01*
X82076668Y-151624686D01*
X82075318Y-151618334D01*
X82052076Y-151471592D01*
X82027385Y-151315701D01*
X82026707Y-151309243D01*
X82010585Y-151001622D01*
X82010500Y-150998376D01*
X82010500Y-149910259D01*
X83857362Y-149910259D01*
X84919436Y-150972334D01*
X85981511Y-149910259D01*
X87675739Y-149910259D01*
X88737814Y-150972334D01*
X89799888Y-149910259D01*
X91494116Y-149910259D01*
X92556190Y-150972333D01*
X93618265Y-149910259D01*
X95312492Y-149910259D01*
X96374567Y-150972334D01*
X97436641Y-149910259D01*
X99130869Y-149910259D01*
X100192943Y-150972334D01*
X101255018Y-149910259D01*
X102949245Y-149910259D01*
X104011320Y-150972333D01*
X105073394Y-149910259D01*
X106767622Y-149910259D01*
X107829697Y-150972334D01*
X108891771Y-149910259D01*
X110585999Y-149910259D01*
X111648074Y-150972334D01*
X112710148Y-149910259D01*
X114404375Y-149910259D01*
X115466450Y-150972334D01*
X116528524Y-149910259D01*
X115466449Y-148848184D01*
X114404375Y-149910259D01*
X112710148Y-149910259D01*
X111648074Y-148848184D01*
X110585999Y-149910259D01*
X108891771Y-149910259D01*
X107829697Y-148848184D01*
X106767622Y-149910259D01*
X105073394Y-149910259D01*
X104011320Y-148848184D01*
X102949245Y-149910259D01*
X101255018Y-149910259D01*
X100192944Y-148848184D01*
X99130869Y-149910259D01*
X97436641Y-149910259D01*
X96374567Y-148848184D01*
X95312492Y-149910259D01*
X93618265Y-149910259D01*
X92556190Y-148848184D01*
X91494116Y-149910259D01*
X89799888Y-149910259D01*
X88737814Y-148848184D01*
X87675739Y-149910259D01*
X85981511Y-149910259D01*
X84919437Y-148848184D01*
X83857362Y-149910259D01*
X82010500Y-149910259D01*
X82010500Y-147137247D01*
X83208500Y-147137247D01*
X83208500Y-148864895D01*
X84072323Y-148001071D01*
X85766551Y-148001071D01*
X86828626Y-149063146D01*
X87890701Y-148001071D01*
X89584927Y-148001071D01*
X90647002Y-149063146D01*
X91709077Y-148001071D01*
X93403304Y-148001071D01*
X94465378Y-149063146D01*
X95527453Y-148001071D01*
X97221681Y-148001071D01*
X98283755Y-149063145D01*
X99345829Y-148001071D01*
X101040057Y-148001071D01*
X102102132Y-149063146D01*
X103164207Y-148001071D01*
X104858434Y-148001071D01*
X105920509Y-149063146D01*
X106982583Y-148001071D01*
X108676810Y-148001071D01*
X109738885Y-149063146D01*
X110800960Y-148001071D01*
X112495187Y-148001071D01*
X113557262Y-149063146D01*
X114619337Y-148001071D01*
X113557262Y-146938996D01*
X112495187Y-148001071D01*
X110800960Y-148001071D01*
X109738885Y-146938996D01*
X108676810Y-148001071D01*
X106982583Y-148001071D01*
X105920509Y-146938996D01*
X104858434Y-148001071D01*
X103164207Y-148001071D01*
X102102132Y-146938996D01*
X101040057Y-148001071D01*
X99345829Y-148001071D01*
X99345830Y-148001070D01*
X98283755Y-146938996D01*
X97221681Y-148001071D01*
X95527453Y-148001071D01*
X94465378Y-146938996D01*
X93403304Y-148001071D01*
X91709077Y-148001071D01*
X90647002Y-146938996D01*
X89584927Y-148001071D01*
X87890701Y-148001071D01*
X86828626Y-146938996D01*
X85766551Y-148001071D01*
X84072323Y-148001071D01*
X84072324Y-148001070D01*
X83208500Y-147137247D01*
X82010500Y-147137247D01*
X82010500Y-146091883D01*
X87675739Y-146091883D01*
X88737814Y-147153958D01*
X89799889Y-146091883D01*
X91494115Y-146091883D01*
X92556190Y-147153957D01*
X93618265Y-146091883D01*
X95312492Y-146091883D01*
X96374567Y-147153958D01*
X97436641Y-146091883D01*
X99130869Y-146091883D01*
X100192943Y-147153958D01*
X101255019Y-146091883D01*
X102949245Y-146091883D01*
X104011320Y-147153957D01*
X105073395Y-146091883D01*
X106767622Y-146091883D01*
X107829697Y-147153958D01*
X108891772Y-146091883D01*
X110585999Y-146091883D01*
X111648074Y-147153958D01*
X112710148Y-146091883D01*
X111648074Y-145029808D01*
X110585999Y-146091883D01*
X108891772Y-146091883D01*
X107829697Y-145029808D01*
X106767622Y-146091883D01*
X105073395Y-146091883D01*
X104011320Y-145029808D01*
X102949245Y-146091883D01*
X101255019Y-146091883D01*
X100192944Y-145029808D01*
X99130869Y-146091883D01*
X97436641Y-146091883D01*
X96374567Y-145029808D01*
X95312492Y-146091883D01*
X93618265Y-146091883D01*
X92556190Y-145029808D01*
X91494115Y-146091883D01*
X89799889Y-146091883D01*
X88737814Y-145029808D01*
X87675739Y-146091883D01*
X82010500Y-146091883D01*
X82010500Y-144144692D01*
X82030185Y-144077653D01*
X82082989Y-144031898D01*
X82150687Y-144021753D01*
X82165620Y-144023719D01*
X83338496Y-142850843D01*
X83339553Y-142857174D01*
X83417578Y-143084454D01*
X83531949Y-143295793D01*
X83679545Y-143485424D01*
X83856340Y-143648175D01*
X84057511Y-143779607D01*
X84277572Y-143876135D01*
X84402810Y-143907849D01*
X83223764Y-145086894D01*
X83223764Y-145086895D01*
X83247460Y-145102480D01*
X83247465Y-145102483D01*
X83559739Y-145259313D01*
X83559745Y-145259316D01*
X83888130Y-145378838D01*
X83888133Y-145378839D01*
X84228171Y-145459429D01*
X84575276Y-145499999D01*
X84575277Y-145500000D01*
X84924723Y-145500000D01*
X84924723Y-145499999D01*
X85271827Y-145459429D01*
X85271829Y-145459429D01*
X85611866Y-145378839D01*
X85611869Y-145378838D01*
X85940254Y-145259316D01*
X85940260Y-145259313D01*
X86252536Y-145102482D01*
X86276235Y-145086894D01*
X85372034Y-144182694D01*
X89584927Y-144182694D01*
X90647002Y-145244769D01*
X91709076Y-144182694D01*
X93403304Y-144182694D01*
X94465379Y-145244769D01*
X95527453Y-144182694D01*
X97221681Y-144182694D01*
X98283755Y-145244768D01*
X99345830Y-144182694D01*
X101040057Y-144182694D01*
X102102132Y-145244769D01*
X103164206Y-144182694D01*
X104858434Y-144182694D01*
X105920509Y-145244769D01*
X106982583Y-144182694D01*
X108676810Y-144182694D01*
X109738885Y-145244769D01*
X110800959Y-144182694D01*
X109738885Y-143120619D01*
X108676810Y-144182694D01*
X106982583Y-144182694D01*
X105920509Y-143120619D01*
X104858434Y-144182694D01*
X103164206Y-144182694D01*
X102102132Y-143120619D01*
X101040057Y-144182694D01*
X99345830Y-144182694D01*
X98283755Y-143120619D01*
X97221681Y-144182694D01*
X95527453Y-144182694D01*
X94465378Y-143120619D01*
X93403304Y-144182694D01*
X91709076Y-144182694D01*
X90647002Y-143120619D01*
X89584927Y-144182694D01*
X85372034Y-144182694D01*
X85097189Y-143907849D01*
X85222428Y-143876135D01*
X85442489Y-143779607D01*
X85643660Y-143648175D01*
X85820455Y-143485424D01*
X85968051Y-143295793D01*
X86082422Y-143084454D01*
X86160447Y-142857174D01*
X86161503Y-142850844D01*
X87334379Y-144023720D01*
X87334380Y-144023720D01*
X87435440Y-143848680D01*
X87573854Y-143527800D01*
X87674083Y-143193011D01*
X87674085Y-143193002D01*
X87734763Y-142848880D01*
X87734764Y-142848869D01*
X87755084Y-142500003D01*
X87755084Y-142499996D01*
X87734764Y-142151130D01*
X87734763Y-142151119D01*
X87674085Y-141806997D01*
X87674083Y-141806988D01*
X87573854Y-141472199D01*
X87466607Y-141223573D01*
X88749956Y-141223573D01*
X88827258Y-141481778D01*
X88835328Y-141511887D01*
X88844202Y-141549309D01*
X88850536Y-141579977D01*
X88917909Y-141962064D01*
X88922443Y-141993029D01*
X88926904Y-142031229D01*
X88929621Y-142062300D01*
X88952175Y-142449539D01*
X88953084Y-142480770D01*
X88953084Y-142519230D01*
X88952175Y-142550461D01*
X88929621Y-142937700D01*
X88926904Y-142968771D01*
X88922443Y-143006971D01*
X88917909Y-143037936D01*
X88892744Y-143180650D01*
X89799889Y-142273506D01*
X91494116Y-142273506D01*
X92556190Y-143335580D01*
X93618265Y-142273506D01*
X95312492Y-142273506D01*
X96374567Y-143335581D01*
X97436642Y-142273506D01*
X99130869Y-142273506D01*
X100192943Y-143335581D01*
X101255018Y-142273506D01*
X102949245Y-142273506D01*
X104011320Y-143335580D01*
X105073395Y-142273506D01*
X106767622Y-142273506D01*
X107829697Y-143335581D01*
X108891772Y-142273506D01*
X107829697Y-141211431D01*
X106767622Y-142273506D01*
X105073395Y-142273506D01*
X104011320Y-141211431D01*
X102949245Y-142273506D01*
X101255018Y-142273506D01*
X100192943Y-141211431D01*
X99130869Y-142273506D01*
X97436642Y-142273506D01*
X96374567Y-141211431D01*
X95312492Y-142273506D01*
X93618265Y-142273506D01*
X92556190Y-141211431D01*
X91494116Y-142273506D01*
X89799889Y-142273506D01*
X88749956Y-141223573D01*
X87466607Y-141223573D01*
X87435440Y-141151319D01*
X87334379Y-140976278D01*
X86161503Y-142149154D01*
X86160447Y-142142826D01*
X86082422Y-141915546D01*
X85968051Y-141704207D01*
X85820455Y-141514576D01*
X85643660Y-141351825D01*
X85442489Y-141220393D01*
X85222428Y-141123865D01*
X85097188Y-141092150D01*
X85825021Y-140364318D01*
X89584927Y-140364318D01*
X90647002Y-141426393D01*
X91709077Y-140364318D01*
X93403304Y-140364318D01*
X94465379Y-141426393D01*
X95527454Y-140364318D01*
X97221681Y-140364318D01*
X98283755Y-141426392D01*
X99345830Y-140364318D01*
X101040057Y-140364318D01*
X102102132Y-141426392D01*
X103164206Y-140364318D01*
X104858434Y-140364318D01*
X105920509Y-141426393D01*
X106982584Y-140364318D01*
X108676810Y-140364318D01*
X109738885Y-141426393D01*
X110800960Y-140364318D01*
X109738885Y-139302243D01*
X108676810Y-140364318D01*
X106982584Y-140364318D01*
X105920509Y-139302243D01*
X104858434Y-140364318D01*
X103164206Y-140364318D01*
X102102132Y-139302243D01*
X101040057Y-140364318D01*
X99345830Y-140364318D01*
X98283755Y-139302243D01*
X97221681Y-140364318D01*
X95527454Y-140364318D01*
X94465379Y-139302243D01*
X93403304Y-140364318D01*
X91709077Y-140364318D01*
X90647002Y-139302243D01*
X89584927Y-140364318D01*
X85825021Y-140364318D01*
X86276235Y-139913104D01*
X86252543Y-139897522D01*
X86252533Y-139897516D01*
X85940260Y-139740685D01*
X85940254Y-139740683D01*
X85611869Y-139621161D01*
X85611866Y-139621160D01*
X85271828Y-139540570D01*
X84924723Y-139500000D01*
X84575277Y-139500000D01*
X84228172Y-139540570D01*
X84228170Y-139540570D01*
X83888133Y-139621160D01*
X83888130Y-139621161D01*
X83559745Y-139740683D01*
X83559739Y-139740685D01*
X83247457Y-139897521D01*
X83247455Y-139897522D01*
X83223764Y-139913103D01*
X83223764Y-139913104D01*
X84402809Y-141092150D01*
X84277572Y-141123865D01*
X84057511Y-141220393D01*
X83856340Y-141351825D01*
X83679545Y-141514576D01*
X83531949Y-141704207D01*
X83417578Y-141915546D01*
X83339553Y-142142826D01*
X83338496Y-142149155D01*
X82165619Y-140976278D01*
X82150686Y-140978245D01*
X82081650Y-140967480D01*
X82029394Y-140921100D01*
X82010500Y-140855306D01*
X82010500Y-138379291D01*
X83933200Y-138379291D01*
X83970613Y-138370425D01*
X84001223Y-138364105D01*
X84039098Y-138357428D01*
X84070000Y-138352902D01*
X84455276Y-138307870D01*
X84486368Y-138305149D01*
X84524763Y-138302910D01*
X84556025Y-138302000D01*
X84943975Y-138302000D01*
X84975237Y-138302910D01*
X85013632Y-138305149D01*
X85044724Y-138307870D01*
X85430000Y-138352902D01*
X85460902Y-138357428D01*
X85498777Y-138364105D01*
X85529387Y-138370425D01*
X85906870Y-138459891D01*
X85937075Y-138467985D01*
X85961378Y-138475262D01*
X85981511Y-138455129D01*
X87675739Y-138455129D01*
X88737814Y-139517204D01*
X89799888Y-138455129D01*
X91494116Y-138455129D01*
X92556190Y-139517204D01*
X93618265Y-138455129D01*
X95312492Y-138455129D01*
X96374567Y-139517204D01*
X97436641Y-138455129D01*
X99130869Y-138455129D01*
X100192944Y-139517204D01*
X101255018Y-138455129D01*
X102949245Y-138455129D01*
X104011320Y-139517204D01*
X105073394Y-138455129D01*
X106767622Y-138455129D01*
X107829697Y-139517204D01*
X108891771Y-138455129D01*
X110585999Y-138455129D01*
X111648074Y-139517204D01*
X112710148Y-138455129D01*
X112620639Y-138365620D01*
X114493884Y-138365620D01*
X114501223Y-138364105D01*
X114539098Y-138357428D01*
X114570000Y-138352902D01*
X114955276Y-138307870D01*
X114986368Y-138305149D01*
X115024763Y-138302910D01*
X115056025Y-138302000D01*
X115443975Y-138302000D01*
X115475237Y-138302910D01*
X115513632Y-138305149D01*
X115544724Y-138307870D01*
X115930000Y-138352902D01*
X115960902Y-138357428D01*
X115998777Y-138364105D01*
X116029387Y-138370425D01*
X116406870Y-138459891D01*
X116437075Y-138467985D01*
X116473918Y-138479017D01*
X116496990Y-138486663D01*
X116528524Y-138455129D01*
X115466450Y-137393055D01*
X114493884Y-138365620D01*
X112620639Y-138365620D01*
X111648074Y-137393055D01*
X110585999Y-138455129D01*
X108891771Y-138455129D01*
X107829697Y-137393055D01*
X106767622Y-138455129D01*
X105073394Y-138455129D01*
X104011320Y-137393055D01*
X102949245Y-138455129D01*
X101255018Y-138455129D01*
X100192943Y-137393055D01*
X99130869Y-138455129D01*
X97436641Y-138455129D01*
X96374567Y-137393055D01*
X95312492Y-138455129D01*
X93618265Y-138455129D01*
X92556190Y-137393055D01*
X91494116Y-138455129D01*
X89799888Y-138455129D01*
X88737813Y-137393055D01*
X87675739Y-138455129D01*
X85981511Y-138455129D01*
X84919437Y-137393055D01*
X83933200Y-138379291D01*
X82010500Y-138379291D01*
X82010500Y-135682117D01*
X83208500Y-135682117D01*
X83208500Y-137409765D01*
X84072324Y-136545941D01*
X85766551Y-136545941D01*
X86828626Y-137608016D01*
X87890701Y-136545941D01*
X89584927Y-136545941D01*
X90647002Y-137608016D01*
X91709077Y-136545941D01*
X93403304Y-136545941D01*
X94465379Y-137608016D01*
X95527454Y-136545941D01*
X97221681Y-136545941D01*
X98283755Y-137608015D01*
X99345829Y-136545941D01*
X101040057Y-136545941D01*
X102102132Y-137608016D01*
X103164206Y-136545941D01*
X104858434Y-136545941D01*
X105920509Y-137608016D01*
X106982583Y-136545941D01*
X108676810Y-136545941D01*
X109738885Y-137608016D01*
X110800960Y-136545941D01*
X112495187Y-136545941D01*
X113557262Y-137608016D01*
X114619337Y-136545941D01*
X113557262Y-135483866D01*
X112495187Y-136545941D01*
X110800960Y-136545941D01*
X109738885Y-135483866D01*
X108676810Y-136545941D01*
X106982583Y-136545941D01*
X105920509Y-135483866D01*
X104858434Y-136545941D01*
X103164206Y-136545941D01*
X102102132Y-135483866D01*
X101040057Y-136545941D01*
X99345829Y-136545941D01*
X99345830Y-136545940D01*
X98283755Y-135483866D01*
X97221681Y-136545941D01*
X95527454Y-136545941D01*
X94465378Y-135483866D01*
X93403304Y-136545941D01*
X91709077Y-136545941D01*
X90647002Y-135483866D01*
X89584927Y-136545941D01*
X87890701Y-136545941D01*
X86828626Y-135483866D01*
X85766551Y-136545941D01*
X84072324Y-136545941D01*
X83208500Y-135682117D01*
X82010500Y-135682117D01*
X82010500Y-134636753D01*
X83857362Y-134636753D01*
X84919437Y-135698828D01*
X85981512Y-134636753D01*
X87675739Y-134636753D01*
X88737814Y-135698828D01*
X89799889Y-134636753D01*
X91494115Y-134636753D01*
X92556190Y-135698827D01*
X93618265Y-134636753D01*
X95312492Y-134636753D01*
X96374567Y-135698828D01*
X97436642Y-134636753D01*
X99130869Y-134636753D01*
X100192943Y-135698828D01*
X101255018Y-134636753D01*
X102949245Y-134636753D01*
X104011320Y-135698827D01*
X105073395Y-134636753D01*
X106767622Y-134636753D01*
X107829697Y-135698827D01*
X108891772Y-134636753D01*
X110585999Y-134636753D01*
X111648074Y-135698828D01*
X112710148Y-134636753D01*
X114404375Y-134636753D01*
X115466450Y-135698828D01*
X116528525Y-134636753D01*
X115466450Y-133574678D01*
X114404375Y-134636753D01*
X112710148Y-134636753D01*
X111648074Y-133574678D01*
X110585999Y-134636753D01*
X108891772Y-134636753D01*
X107829697Y-133574678D01*
X106767622Y-134636753D01*
X105073395Y-134636753D01*
X104011320Y-133574678D01*
X102949245Y-134636753D01*
X101255018Y-134636753D01*
X100192943Y-133574678D01*
X99130869Y-134636753D01*
X97436642Y-134636753D01*
X96374567Y-133574678D01*
X95312492Y-134636753D01*
X93618265Y-134636753D01*
X92556190Y-133574678D01*
X91494115Y-134636753D01*
X89799889Y-134636753D01*
X88737814Y-133574678D01*
X87675739Y-134636753D01*
X85981512Y-134636753D01*
X84919436Y-133574678D01*
X83857362Y-134636753D01*
X82010500Y-134636753D01*
X82010500Y-131863741D01*
X83208500Y-131863741D01*
X83208500Y-133591388D01*
X84072323Y-132727564D01*
X85766551Y-132727564D01*
X86828626Y-133789639D01*
X87890700Y-132727564D01*
X89584927Y-132727564D01*
X90647002Y-133789639D01*
X91709076Y-132727564D01*
X93403304Y-132727564D01*
X94465378Y-133789639D01*
X95527453Y-132727564D01*
X97221681Y-132727564D01*
X98283755Y-133789639D01*
X99345830Y-132727564D01*
X101040057Y-132727564D01*
X102102132Y-133789639D01*
X103164206Y-132727564D01*
X104858434Y-132727564D01*
X105920509Y-133789639D01*
X106982583Y-132727564D01*
X108676810Y-132727564D01*
X109738885Y-133789639D01*
X110800959Y-132727564D01*
X112495187Y-132727564D01*
X113557262Y-133789639D01*
X114619336Y-132727564D01*
X113557262Y-131665490D01*
X112495187Y-132727564D01*
X110800959Y-132727564D01*
X109738885Y-131665489D01*
X108676810Y-132727564D01*
X106982583Y-132727564D01*
X105920509Y-131665489D01*
X104858434Y-132727564D01*
X103164206Y-132727564D01*
X102102132Y-131665490D01*
X101040057Y-132727564D01*
X99345830Y-132727564D01*
X98283755Y-131665490D01*
X97221681Y-132727564D01*
X95527453Y-132727564D01*
X94465378Y-131665489D01*
X93403304Y-132727564D01*
X91709076Y-132727564D01*
X90647002Y-131665490D01*
X89584927Y-132727564D01*
X87890700Y-132727564D01*
X86828626Y-131665489D01*
X85766551Y-132727564D01*
X84072323Y-132727564D01*
X83208500Y-131863741D01*
X82010500Y-131863741D01*
X82010500Y-130818376D01*
X83857362Y-130818376D01*
X84919437Y-131880451D01*
X85981512Y-130818375D01*
X87675739Y-130818375D01*
X88737814Y-131880451D01*
X89799889Y-130818376D01*
X89799888Y-130818375D01*
X91494116Y-130818375D01*
X92556190Y-131880450D01*
X93618265Y-130818376D01*
X95312492Y-130818376D01*
X96374567Y-131880451D01*
X97436642Y-130818375D01*
X99130869Y-130818375D01*
X100192944Y-131880451D01*
X101255019Y-130818376D01*
X102949245Y-130818376D01*
X104011320Y-131880450D01*
X105073394Y-130818376D01*
X106767622Y-130818376D01*
X107829697Y-131880451D01*
X108891772Y-130818376D01*
X108891771Y-130818375D01*
X110585999Y-130818375D01*
X111648074Y-131880450D01*
X112710148Y-130818375D01*
X114404375Y-130818375D01*
X115466450Y-131880450D01*
X116528525Y-130818375D01*
X115466450Y-129756301D01*
X114404375Y-130818375D01*
X112710148Y-130818375D01*
X111648074Y-129756301D01*
X110585999Y-130818375D01*
X108891771Y-130818375D01*
X107829697Y-129756301D01*
X106767622Y-130818376D01*
X105073394Y-130818376D01*
X105073395Y-130818375D01*
X104011320Y-129756301D01*
X102949245Y-130818376D01*
X101255019Y-130818376D01*
X100192943Y-129756301D01*
X99130869Y-130818375D01*
X97436642Y-130818375D01*
X96374567Y-129756301D01*
X95312492Y-130818376D01*
X93618265Y-130818376D01*
X92556190Y-129756301D01*
X91494116Y-130818375D01*
X89799888Y-130818375D01*
X88737813Y-129756301D01*
X87675739Y-130818375D01*
X85981512Y-130818375D01*
X84919437Y-129756301D01*
X83857362Y-130818376D01*
X82010500Y-130818376D01*
X82010500Y-128045363D01*
X83208500Y-128045363D01*
X83208500Y-129773012D01*
X84072323Y-128909188D01*
X85766551Y-128909188D01*
X86828626Y-129971263D01*
X87890701Y-128909188D01*
X87890700Y-128909187D01*
X89584927Y-128909187D01*
X90647002Y-129971263D01*
X91709077Y-128909188D01*
X93403304Y-128909188D01*
X94465378Y-129971263D01*
X95527454Y-128909187D01*
X97221681Y-128909187D01*
X98283755Y-129971262D01*
X99345830Y-128909188D01*
X99345829Y-128909187D01*
X101040057Y-128909187D01*
X102102132Y-129971263D01*
X103164207Y-128909188D01*
X104858434Y-128909188D01*
X105920509Y-129971263D01*
X106982583Y-128909188D01*
X108676810Y-128909188D01*
X109738885Y-129971263D01*
X110800960Y-128909188D01*
X110800959Y-128909187D01*
X112495187Y-128909187D01*
X113557262Y-129971262D01*
X114619337Y-128909187D01*
X113557262Y-127847112D01*
X112495187Y-128909187D01*
X110800959Y-128909187D01*
X109738885Y-127847113D01*
X108676810Y-128909188D01*
X106982583Y-128909188D01*
X105920509Y-127847113D01*
X104858434Y-128909188D01*
X103164207Y-128909188D01*
X102102132Y-127847112D01*
X101040057Y-128909187D01*
X99345829Y-128909187D01*
X98283755Y-127847113D01*
X97221681Y-128909187D01*
X95527454Y-128909187D01*
X94465379Y-127847112D01*
X93403304Y-128909188D01*
X91709077Y-128909188D01*
X90647002Y-127847112D01*
X89584927Y-128909187D01*
X87890700Y-128909187D01*
X86828626Y-127847113D01*
X85766551Y-128909188D01*
X84072323Y-128909188D01*
X84072324Y-128909187D01*
X83208500Y-128045363D01*
X82010500Y-128045363D01*
X82010500Y-127000000D01*
X83857362Y-127000000D01*
X84919436Y-128062075D01*
X85981512Y-127000000D01*
X87675739Y-127000000D01*
X88737814Y-128062075D01*
X89799889Y-127000000D01*
X91494115Y-127000000D01*
X92556190Y-128062074D01*
X93618265Y-127000000D01*
X95312492Y-127000000D01*
X96374567Y-128062075D01*
X97436641Y-127000000D01*
X97436640Y-126999999D01*
X99130869Y-126999999D01*
X100192944Y-128062075D01*
X101255019Y-127000000D01*
X102949245Y-127000000D01*
X104011320Y-128062074D01*
X105073395Y-127000000D01*
X106767622Y-127000000D01*
X107829697Y-128062075D01*
X108891772Y-127000000D01*
X108891771Y-126999999D01*
X110585999Y-126999999D01*
X111648074Y-128062075D01*
X112710149Y-127000000D01*
X114404374Y-127000000D01*
X115466449Y-128062075D01*
X116528525Y-126999999D01*
X115466450Y-125937924D01*
X114404374Y-127000000D01*
X112710149Y-127000000D01*
X111648074Y-125937924D01*
X110585999Y-126999999D01*
X108891771Y-126999999D01*
X107829697Y-125937925D01*
X106767622Y-127000000D01*
X105073395Y-127000000D01*
X104011320Y-125937925D01*
X102949245Y-127000000D01*
X101255019Y-127000000D01*
X100192943Y-125937924D01*
X99130869Y-126999999D01*
X97436640Y-126999999D01*
X96374567Y-125937925D01*
X95312492Y-127000000D01*
X93618265Y-127000000D01*
X92556190Y-125937925D01*
X91494115Y-127000000D01*
X89799889Y-127000000D01*
X88737814Y-125937925D01*
X87675739Y-127000000D01*
X85981512Y-127000000D01*
X84919437Y-125937925D01*
X83857362Y-127000000D01*
X82010500Y-127000000D01*
X82010500Y-124226987D01*
X83208500Y-124226987D01*
X83208500Y-125954634D01*
X84072322Y-125090811D01*
X85766551Y-125090811D01*
X86828626Y-126152886D01*
X87890700Y-125090811D01*
X89584927Y-125090811D01*
X90647002Y-126152886D01*
X91709076Y-125090811D01*
X93403304Y-125090811D01*
X94465379Y-126152886D01*
X95527453Y-125090811D01*
X97221681Y-125090811D01*
X98283755Y-126152885D01*
X99345830Y-125090811D01*
X101040057Y-125090811D01*
X102102132Y-126152886D01*
X103164206Y-125090811D01*
X104858434Y-125090811D01*
X105920509Y-126152886D01*
X106982583Y-125090811D01*
X108676810Y-125090811D01*
X109738885Y-126152885D01*
X110800959Y-125090811D01*
X112495187Y-125090811D01*
X113557262Y-126152886D01*
X114619336Y-125090811D01*
X113557262Y-124028736D01*
X112495187Y-125090811D01*
X110800959Y-125090811D01*
X109738885Y-124028736D01*
X108676810Y-125090811D01*
X106982583Y-125090811D01*
X105920509Y-124028736D01*
X104858434Y-125090811D01*
X103164206Y-125090811D01*
X102102132Y-124028736D01*
X101040057Y-125090811D01*
X99345830Y-125090811D01*
X98283755Y-124028736D01*
X97221681Y-125090811D01*
X95527453Y-125090811D01*
X94465379Y-124028736D01*
X93403304Y-125090811D01*
X91709076Y-125090811D01*
X90647002Y-124028736D01*
X89584927Y-125090811D01*
X87890700Y-125090811D01*
X86828625Y-124028736D01*
X85766551Y-125090811D01*
X84072322Y-125090811D01*
X84072323Y-125090810D01*
X83208500Y-124226987D01*
X82010500Y-124226987D01*
X82010500Y-123181622D01*
X83857362Y-123181622D01*
X84919437Y-124243698D01*
X85981512Y-123181623D01*
X87675739Y-123181623D01*
X88737813Y-124243698D01*
X89799889Y-123181623D01*
X91494116Y-123181623D01*
X92556190Y-124243697D01*
X93618265Y-123181623D01*
X93618264Y-123181622D01*
X95312491Y-123181622D01*
X96374567Y-124243698D01*
X97436642Y-123181623D01*
X99130869Y-123181623D01*
X100192943Y-124243698D01*
X101255018Y-123181623D01*
X102949245Y-123181623D01*
X104011320Y-124243697D01*
X105073395Y-123181623D01*
X105073394Y-123181622D01*
X106767622Y-123181622D01*
X107829697Y-124243698D01*
X108891772Y-123181623D01*
X110585999Y-123181623D01*
X111648074Y-124243698D01*
X112710148Y-123181623D01*
X114404375Y-123181623D01*
X115466450Y-124243698D01*
X116528525Y-123181623D01*
X115466450Y-122119548D01*
X114404375Y-123181623D01*
X112710148Y-123181623D01*
X111648074Y-122119548D01*
X110585999Y-123181623D01*
X108891772Y-123181623D01*
X107829697Y-122119547D01*
X106767622Y-123181622D01*
X105073394Y-123181622D01*
X104011320Y-122119548D01*
X102949245Y-123181623D01*
X101255018Y-123181623D01*
X100192943Y-122119548D01*
X99130869Y-123181623D01*
X97436642Y-123181623D01*
X96374567Y-122119547D01*
X95312491Y-123181622D01*
X93618264Y-123181622D01*
X92556190Y-122119548D01*
X91494116Y-123181623D01*
X89799889Y-123181623D01*
X88737814Y-122119548D01*
X87675739Y-123181623D01*
X85981512Y-123181623D01*
X84919436Y-122119547D01*
X83857362Y-123181622D01*
X82010500Y-123181622D01*
X82010500Y-120408611D01*
X83208500Y-120408611D01*
X83208500Y-122136258D01*
X84072324Y-121272435D01*
X85766550Y-121272435D01*
X86828625Y-122334510D01*
X87890700Y-121272435D01*
X89584927Y-121272435D01*
X90647002Y-122334510D01*
X91709077Y-121272435D01*
X93403304Y-121272435D01*
X94465379Y-122334510D01*
X95527454Y-121272435D01*
X97221681Y-121272435D01*
X98283755Y-122334509D01*
X99345830Y-121272435D01*
X101040057Y-121272435D01*
X102102132Y-122334510D01*
X103164206Y-121272435D01*
X103164205Y-121272434D01*
X104858434Y-121272434D01*
X105920509Y-122334510D01*
X106982584Y-121272435D01*
X108676809Y-121272435D01*
X109738885Y-122334510D01*
X110800960Y-121272435D01*
X112495187Y-121272435D01*
X113557262Y-122334510D01*
X114619337Y-121272435D01*
X113557262Y-120210360D01*
X112495187Y-121272435D01*
X110800960Y-121272435D01*
X109738885Y-120210359D01*
X108676809Y-121272435D01*
X106982584Y-121272435D01*
X105920509Y-120210359D01*
X104858434Y-121272434D01*
X103164205Y-121272434D01*
X102102132Y-120210360D01*
X101040057Y-121272435D01*
X99345830Y-121272435D01*
X98283755Y-120210360D01*
X97221681Y-121272435D01*
X95527454Y-121272435D01*
X94465379Y-120210360D01*
X93403304Y-121272435D01*
X91709077Y-121272435D01*
X90647002Y-120210360D01*
X89584927Y-121272435D01*
X87890700Y-121272435D01*
X86828626Y-120210360D01*
X85766550Y-121272435D01*
X84072324Y-121272435D01*
X83208500Y-120408611D01*
X82010500Y-120408611D01*
X82010500Y-119363246D01*
X83857362Y-119363246D01*
X84919436Y-120425321D01*
X85981511Y-119363246D01*
X87675739Y-119363246D01*
X88737814Y-120425321D01*
X89799888Y-119363246D01*
X91494116Y-119363246D01*
X92556190Y-120425320D01*
X93618265Y-119363246D01*
X95312492Y-119363246D01*
X96374567Y-120425321D01*
X97436641Y-119363246D01*
X99130869Y-119363246D01*
X100192944Y-120425321D01*
X101255018Y-119363246D01*
X102949245Y-119363246D01*
X104011320Y-120425320D01*
X105073394Y-119363246D01*
X106767622Y-119363246D01*
X107829697Y-120425321D01*
X108891771Y-119363246D01*
X110585999Y-119363246D01*
X111648074Y-120425321D01*
X112710148Y-119363246D01*
X114404375Y-119363246D01*
X115466450Y-120425320D01*
X116528524Y-119363246D01*
X115466450Y-118301171D01*
X114404375Y-119363246D01*
X112710148Y-119363246D01*
X111648074Y-118301171D01*
X110585999Y-119363246D01*
X108891771Y-119363246D01*
X107829697Y-118301171D01*
X106767622Y-119363246D01*
X105073394Y-119363246D01*
X104011320Y-118301171D01*
X102949245Y-119363246D01*
X101255018Y-119363246D01*
X100192944Y-118301171D01*
X99130869Y-119363246D01*
X97436641Y-119363246D01*
X96374567Y-118301171D01*
X95312492Y-119363246D01*
X93618265Y-119363246D01*
X92556190Y-118301171D01*
X91494116Y-119363246D01*
X89799888Y-119363246D01*
X88737814Y-118301171D01*
X87675739Y-119363246D01*
X85981511Y-119363246D01*
X84919437Y-118301171D01*
X83857362Y-119363246D01*
X82010500Y-119363246D01*
X82010500Y-116590234D01*
X83208500Y-116590234D01*
X83208500Y-118317881D01*
X84072324Y-117454058D01*
X85766551Y-117454058D01*
X86828626Y-118516133D01*
X87890701Y-117454058D01*
X87890700Y-117454057D01*
X89584926Y-117454057D01*
X90647002Y-118516133D01*
X91709077Y-117454058D01*
X93403304Y-117454058D01*
X94465378Y-118516133D01*
X95283012Y-117698499D01*
X97466122Y-117698499D01*
X98283755Y-118516132D01*
X99333862Y-117466025D01*
X101052024Y-117466025D01*
X102102132Y-118516133D01*
X103164206Y-117454058D01*
X104858434Y-117454058D01*
X105920509Y-118516133D01*
X106982583Y-117454058D01*
X108676810Y-117454058D01*
X109738885Y-118516133D01*
X110800960Y-117454058D01*
X110800959Y-117454057D01*
X112495187Y-117454057D01*
X113557262Y-118516133D01*
X114619337Y-117454058D01*
X113557262Y-116391982D01*
X112495187Y-117454057D01*
X110800959Y-117454057D01*
X109738885Y-116391983D01*
X108676810Y-117454058D01*
X106982583Y-117454058D01*
X105920509Y-116391983D01*
X104858434Y-117454058D01*
X103164206Y-117454058D01*
X102931523Y-117221374D01*
X102821159Y-117310747D01*
X102818583Y-117312724D01*
X102775698Y-117343882D01*
X102773022Y-117345721D01*
X102717668Y-117381667D01*
X102714900Y-117383363D01*
X102669004Y-117409860D01*
X102666152Y-117411409D01*
X102438786Y-117527257D01*
X102435856Y-117528654D01*
X102387447Y-117550208D01*
X102384448Y-117551450D01*
X102322835Y-117575102D01*
X102319773Y-117576186D01*
X102269359Y-117592567D01*
X102266246Y-117593489D01*
X101787034Y-117721891D01*
X101730750Y-117723733D01*
X101296248Y-117637305D01*
X101244953Y-117614064D01*
X101052024Y-117466025D01*
X99333862Y-117466025D01*
X99345830Y-117454057D01*
X99256967Y-117365194D01*
X99226980Y-117345722D01*
X99224303Y-117343882D01*
X99181417Y-117312724D01*
X99178841Y-117310747D01*
X99000397Y-117166244D01*
X98821437Y-117311165D01*
X98818862Y-117313141D01*
X98775996Y-117344286D01*
X98773321Y-117346125D01*
X98717971Y-117382071D01*
X98715204Y-117383767D01*
X98669290Y-117410277D01*
X98666436Y-117411827D01*
X98438966Y-117527727D01*
X98436036Y-117529124D01*
X98387627Y-117550678D01*
X98384629Y-117551919D01*
X98323016Y-117575572D01*
X98319954Y-117576656D01*
X98269538Y-117593037D01*
X98266426Y-117593959D01*
X98023826Y-117658962D01*
X98021067Y-117659634D01*
X97975786Y-117669570D01*
X97972998Y-117670115D01*
X97916086Y-117679895D01*
X97913276Y-117680312D01*
X97867245Y-117686067D01*
X97864418Y-117686354D01*
X97733536Y-117696654D01*
X97686528Y-117698499D01*
X97466122Y-117698499D01*
X95283012Y-117698499D01*
X95489985Y-117491526D01*
X95333564Y-117411827D01*
X95330710Y-117410277D01*
X95284796Y-117383767D01*
X95282029Y-117382071D01*
X95226679Y-117346125D01*
X95224004Y-117344286D01*
X95181138Y-117313141D01*
X95178563Y-117311165D01*
X94980170Y-117150509D01*
X94977701Y-117148400D01*
X94938316Y-117112937D01*
X94935962Y-117110703D01*
X94889297Y-117064038D01*
X94887063Y-117061684D01*
X94851600Y-117022299D01*
X94849491Y-117019830D01*
X94688835Y-116821437D01*
X94686859Y-116818862D01*
X94655714Y-116775996D01*
X94653875Y-116773321D01*
X94617929Y-116717971D01*
X94616233Y-116715204D01*
X94589723Y-116669290D01*
X94588173Y-116666436D01*
X94472273Y-116438966D01*
X94470876Y-116436036D01*
X94455610Y-116401751D01*
X93403304Y-117454058D01*
X91709077Y-117454058D01*
X90647002Y-116391982D01*
X89584926Y-117454057D01*
X87890700Y-117454057D01*
X86828626Y-116391983D01*
X85766551Y-117454058D01*
X84072324Y-117454058D01*
X83208500Y-116590234D01*
X82010500Y-116590234D01*
X82010500Y-115544870D01*
X87675739Y-115544870D01*
X88737814Y-116606945D01*
X89799889Y-115544870D01*
X91494115Y-115544870D01*
X92556190Y-116606944D01*
X93618265Y-115544870D01*
X92556190Y-114482795D01*
X91494115Y-115544870D01*
X89799889Y-115544870D01*
X88737814Y-114482795D01*
X87675739Y-115544870D01*
X82010500Y-115544870D01*
X82010500Y-113644692D01*
X82030185Y-113577653D01*
X82082989Y-113531898D01*
X82150687Y-113521753D01*
X82165620Y-113523719D01*
X83338496Y-112350842D01*
X83339553Y-112357174D01*
X83417578Y-112584454D01*
X83531949Y-112795793D01*
X83679545Y-112985424D01*
X83856340Y-113148175D01*
X84057511Y-113279607D01*
X84277572Y-113376135D01*
X84402810Y-113407849D01*
X83223764Y-114586894D01*
X83223764Y-114586895D01*
X83247460Y-114602480D01*
X83247465Y-114602483D01*
X83559739Y-114759313D01*
X83559745Y-114759316D01*
X83888130Y-114878838D01*
X83888133Y-114878839D01*
X84228171Y-114959429D01*
X84575276Y-114999999D01*
X84575277Y-115000000D01*
X84924723Y-115000000D01*
X84924723Y-114999999D01*
X85271827Y-114959429D01*
X85271829Y-114959429D01*
X85611866Y-114878839D01*
X85611869Y-114878838D01*
X85940254Y-114759316D01*
X85940260Y-114759313D01*
X86252536Y-114602482D01*
X86276235Y-114586894D01*
X85325021Y-113635681D01*
X89584926Y-113635681D01*
X90647001Y-114697755D01*
X91191756Y-114153001D01*
X91167005Y-114148280D01*
X91049897Y-114122102D01*
X90932042Y-114099620D01*
X90899131Y-114092263D01*
X90858901Y-114081936D01*
X90826479Y-114072517D01*
X90822985Y-114071381D01*
X90819399Y-114070580D01*
X90786679Y-114062179D01*
X90746790Y-114050587D01*
X90714725Y-114040167D01*
X90601859Y-113999533D01*
X90487710Y-113962445D01*
X90455917Y-113950997D01*
X90417294Y-113935701D01*
X90386362Y-113922314D01*
X90383073Y-113920765D01*
X90379621Y-113919523D01*
X90348197Y-113907081D01*
X90310072Y-113890579D01*
X90279577Y-113876228D01*
X90172689Y-113821766D01*
X90064137Y-113770686D01*
X90034117Y-113755391D01*
X89997718Y-113735384D01*
X89968629Y-113718184D01*
X89965513Y-113716206D01*
X89962221Y-113714529D01*
X89932601Y-113698244D01*
X89896851Y-113677096D01*
X89868407Y-113659044D01*
X89769188Y-113591614D01*
X89683422Y-113537186D01*
X89584926Y-113635681D01*
X85325021Y-113635681D01*
X85097189Y-113407849D01*
X85222428Y-113376135D01*
X85442489Y-113279607D01*
X85643660Y-113148175D01*
X85820455Y-112985424D01*
X85968051Y-112795793D01*
X86082422Y-112584454D01*
X86160447Y-112357174D01*
X86161503Y-112350844D01*
X87334379Y-113523720D01*
X87334380Y-113523720D01*
X87435440Y-113348680D01*
X87573854Y-113027800D01*
X87674083Y-112693011D01*
X87674085Y-112693002D01*
X87734763Y-112348880D01*
X87734764Y-112348869D01*
X87755084Y-112000003D01*
X87755084Y-111999996D01*
X87734764Y-111651130D01*
X87734763Y-111651119D01*
X87674085Y-111306997D01*
X87674083Y-111306988D01*
X87573854Y-110972199D01*
X87435440Y-110651319D01*
X87334379Y-110476278D01*
X86161503Y-111649154D01*
X86160447Y-111642826D01*
X86082422Y-111415546D01*
X85968051Y-111204207D01*
X85820455Y-111014576D01*
X85643660Y-110851825D01*
X85442489Y-110720393D01*
X85222428Y-110623865D01*
X85097188Y-110592150D01*
X86276235Y-109413104D01*
X86252543Y-109397522D01*
X86252533Y-109397516D01*
X85940260Y-109240685D01*
X85940254Y-109240683D01*
X85611869Y-109121161D01*
X85611866Y-109121160D01*
X85271828Y-109040570D01*
X84924723Y-109000000D01*
X84575277Y-109000000D01*
X84228172Y-109040570D01*
X84228170Y-109040570D01*
X83888133Y-109121160D01*
X83888130Y-109121161D01*
X83559745Y-109240683D01*
X83559739Y-109240685D01*
X83247457Y-109397521D01*
X83247455Y-109397522D01*
X83223764Y-109413103D01*
X83223764Y-109413104D01*
X84402809Y-110592150D01*
X84277572Y-110623865D01*
X84057511Y-110720393D01*
X83856340Y-110851825D01*
X83679545Y-111014576D01*
X83531949Y-111204207D01*
X83417578Y-111415546D01*
X83339553Y-111642826D01*
X83338496Y-111649155D01*
X82165619Y-110476278D01*
X82150686Y-110478245D01*
X82081650Y-110467480D01*
X82029394Y-110421100D01*
X82010500Y-110355306D01*
X82010500Y-103001622D01*
X82010585Y-102998376D01*
X82026707Y-102690756D01*
X82027386Y-102684297D01*
X82049346Y-102545649D01*
X82075319Y-102381656D01*
X82076668Y-102375313D01*
X82155976Y-102079333D01*
X82157977Y-102073170D01*
X82267794Y-101787087D01*
X82270426Y-101781174D01*
X82409554Y-101508120D01*
X82412771Y-101502548D01*
X82579686Y-101245522D01*
X82583488Y-101240292D01*
X82658392Y-101147793D01*
X82776334Y-101002146D01*
X82780661Y-100997341D01*
X82997341Y-100780661D01*
X83002146Y-100776334D01*
X83240290Y-100583488D01*
X83245522Y-100579686D01*
X83502548Y-100412771D01*
X83508120Y-100409554D01*
X83781174Y-100270426D01*
X83787087Y-100267794D01*
X84073170Y-100157977D01*
X84079333Y-100155976D01*
X84375313Y-100076668D01*
X84381656Y-100075319D01*
X84684300Y-100027385D01*
X84690756Y-100026707D01*
X84771334Y-100022484D01*
X84998379Y-100010584D01*
X85001623Y-100010500D01*
X85003412Y-100010500D01*
X114996588Y-100010500D01*
X114998377Y-100010500D01*
X115001620Y-100010584D01*
G37*
%TD.AperFunction*%
%TD*%
M02*
